<svg width="21" height="19" viewBox="0 0 21 19" fill="none" xmlns="http://www.w3.org/2000/svg">
<path d="M11.9779 10.4131C13.8764 8.97662 15.7114 7.88419 17.1266 7.27056C17.8004 6.97841 18.3327 6.81588 18.7068 6.7582C18.5497 7.10263 18.2499 7.57193 17.7853 8.14122C16.8101 9.33628 15.2593 10.8044 13.3609 12.2408C11.4622 13.6774 9.62729 14.7711 8.212 15.3847C7.53722 15.6773 7.00399 15.8387 6.62977 15.8961C6.78684 15.5517 7.08853 15.0835 7.55323 14.5141C8.52854 13.3189 10.0793 11.8496 11.9779 10.4131Z" stroke="#D9D9D9" stroke-width="2"/>
<path d="M1 5.72298L2.43074 4.29223L3.86149 5.72298L2.43074 7.15372L1 5.72298Z" fill="#D9D9D9"/>
<path d="M5.76915 5.72298L7.19989 4.29223L8.63063 5.72298L7.19989 7.15372L5.76915 5.72298Z" fill="#D9D9D9"/>
<path d="M2.43074 0V4.29223M2.43074 4.29223L1 5.72298L2.43074 7.15372L3.86149 5.72298L2.43074 4.29223ZM7.19989 0V4.29223M7.19989 4.29223L5.76915 5.72298L7.19989 7.15372L8.63063 5.72298L7.19989 4.29223Z" stroke="#D9D9D9"/>
</svg>
