<svg width="20" height="36" viewBox="0 0 20 36" fill="none" xmlns="http://www.w3.org/2000/svg">
<path d="M6.00584 2.60856L8.54251 0.076599C8.58955 0.0296424 8.65906 0.0132466 8.72213 0.0342306L12.5157 1.29642C12.5875 1.32031 12.636 1.38749 12.636 1.46316V6.02191C12.636 6.07013 12.6162 6.11624 12.5812 6.14943L11.2821 7.3812C11.1669 7.49049 11.2442 7.68445 11.4031 7.68445H12.6063C12.626 7.68445 12.6454 7.68117 12.664 7.67473L14.5131 7.03274C14.5442 7.02196 14.5716 7.00268 14.5923 6.97709L16.8283 4.20642C16.9054 4.11099 16.8634 3.96802 16.7471 3.92931L12.8399 2.62934C12.7681 2.60545 12.7197 2.53827 12.7197 2.46259V1.71204C12.7197 1.60307 12.8178 1.52037 12.9252 1.53885L19.7099 2.70646C19.841 2.72902 19.9005 2.88337 19.8184 2.98805L13.8998 10.5394C13.866 10.5826 13.8543 10.639 13.868 10.6921L15.0571 15.2636C15.0609 15.2781 15.0628 15.2929 15.0628 15.3079V21.5188C15.0628 21.5394 15.0592 21.5598 15.0521 21.5791L11.9416 30.1023C11.9295 30.1354 11.9277 30.1714 11.9363 30.2056L12.8646 33.8835C12.8694 33.9023 12.8772 33.9201 12.8877 33.9363L13.7952 35.3307C13.8979 35.4886 13.714 35.6755 13.5545 35.5754L11.9647 34.5773C11.9375 34.5602 11.9155 34.5359 11.901 34.5072L10.9862 32.6808C10.9126 32.534 10.6957 32.5593 10.658 32.7192L10.0678 35.2219C10.052 35.2888 9.99857 35.3404 9.93112 35.3539L7.28515 35.8821C7.11284 35.9165 7.00229 35.7047 7.12906 35.583L8.82748 33.9529C8.85525 33.9263 8.8735 33.8912 8.87943 33.8532L9.44869 30.2005C9.45352 30.1695 9.44997 30.1378 9.43841 30.1086L6.30373 22.2041C6.28611 22.1597 6.28734 22.11 6.30715 22.0665L6.69456 21.2158L8.74377 17.125C8.77048 17.0716 8.76832 17.0084 8.73805 16.957L6.39259 12.9772C6.33388 12.8775 6.19659 12.8608 6.11566 12.9434L2.73161 16.3979C2.65829 16.4728 2.66634 16.5948 2.74887 16.6593L5.61079 18.8983C5.66006 18.9368 5.72612 18.9463 5.78423 18.9231L6.83116 18.5051C6.89986 18.4777 6.97837 18.4962 7.02756 18.5514L7.5358 19.1221C7.58366 19.1759 7.59391 19.2534 7.56168 19.3177L6.89654 20.6455C6.87448 20.6896 6.83497 20.7223 6.78761 20.7358L6.35604 20.8589C6.30546 20.8733 6.25109 20.8643 6.20784 20.8344L0.163191 16.6512C0.0764486 16.5912 0.0617692 16.4688 0.131856 16.39L5.27197 10.6079L6.86193 9.10441L8.43433 7.98335C8.52793 7.91661 8.53331 7.77946 8.44522 7.7056L6.57663 6.13889C6.54472 6.11214 6.52334 6.07491 6.51632 6.03386L5.95677 2.76256C5.94714 2.70631 5.96544 2.64888 6.00584 2.60856Z" fill="#D9D9D9"/>
</svg>
