<svg width="20" height="13" viewBox="0 0 20 13" fill="none" xmlns="http://www.w3.org/2000/svg">
<path d="M9.53271 0.0937383C5.72449 -0.59451 1.94953 2.66644 0.278383 4.67173C0.0965726 4.8899 0.0257705 5.17967 0.0959476 5.45485C1.18907 9.74129 6.05207 10.9494 8.67634 11.0338C8.86986 11.0401 9.06448 11.0829 9.24377 11.156C9.59742 11.3002 10.2891 11.6235 11.5888 12.6804C13.0988 13.9085 16.5677 11.3474 18.8546 9.23657C19.3976 8.73532 19.1812 7.85366 18.4784 7.62505L16.0922 6.84878C15.737 6.73324 15.4802 6.42837 15.3872 6.06666C14.8676 4.048 13.1833 0.753495 9.53271 0.0937383Z" fill="#D9D9D9"/>
</svg>
