<svg width="20" height="20" viewBox="0 0 20 20" fill="none" xmlns="http://www.w3.org/2000/svg">
<path d="M11.1573 13.1436C11.454 13.8613 11.6378 14.8537 11.6378 15.9493C11.6377 18.1387 11.3788 19.8707 10.0001 19.9141C8.621 19.9572 8.36244 18.1389 8.36238 15.9493C8.36238 14.8675 8.54104 13.8864 8.83113 13.1709C9.18337 13.2943 9.56177 13.3632 9.95613 13.3633C10.379 13.3633 10.7837 13.2845 11.1573 13.1436ZM13.0352 11.4112C13.757 11.7065 14.5971 12.2816 15.379 13.0635C16.9272 14.6118 17.969 16.0198 17.0245 17.0254C16.0798 18.0311 14.6109 16.9282 13.0626 15.3799C12.2808 14.5981 11.7066 13.7579 11.4112 13.0362C12.1229 12.6991 12.6986 12.1231 13.0352 11.4112ZM6.8907 11.4405C7.24003 12.1617 7.83708 12.7399 8.57039 13.0674C8.27144 13.7821 7.7024 14.6092 6.93172 15.3799C5.38344 16.9282 3.97551 17.9694 2.96981 17.0254C1.96407 16.0806 3.06679 14.6121 4.61531 13.0635C5.37284 12.306 6.1845 11.7434 6.8907 11.4405ZM3.96688 8.2764C5.06179 8.27647 6.05312 8.46045 6.77059 8.75687C6.62976 9.13042 6.55184 9.53523 6.55184 9.95804C6.55188 10.3519 6.61926 10.7302 6.74227 11.0821C6.02709 11.3718 5.04777 11.5527 3.96688 11.5528C1.7773 11.5528 0.0447309 11.2937 0.00105573 9.91507C-0.0420449 8.53583 1.77692 8.2764 3.96688 8.2764ZM16.0343 8.2764C18.224 8.27644 19.956 8.53594 19.9991 9.91507C20.0415 11.2936 18.2236 11.5527 16.0343 11.5528C14.9137 11.5528 13.9019 11.3585 13.1807 11.0498C13.2968 10.707 13.3614 10.3401 13.3614 9.95804C13.3614 9.5479 13.2893 9.15424 13.1563 8.79007C13.879 8.47516 14.9009 8.2764 16.0343 8.2764ZM13.0626 4.52933C14.611 2.98095 16.0188 1.93909 17.0245 2.88382C18.0297 3.82856 16.9272 5.29744 15.379 6.84574C14.5961 7.6286 13.7547 8.20309 13.0323 8.49808C12.6947 7.78819 12.1192 7.21378 11.4083 6.87796C11.703 6.15504 12.2788 5.31308 13.0626 4.52933ZM2.96981 2.88382C3.91459 1.87857 5.38335 2.98094 6.93172 4.52933C7.70375 5.30143 8.27388 6.13016 8.57234 6.84574C7.83967 7.17226 7.24374 7.75024 6.89363 8.46976C6.18685 8.16715 5.37377 7.60416 4.61531 6.84574C3.06682 5.29721 2.02506 3.88956 2.96981 2.88382ZM10.0001 0.00101161C11.3789 -0.0416904 11.6378 1.77707 11.6378 3.96683C11.6377 5.0622 11.4539 6.05395 11.1573 6.77152C10.7838 6.63065 10.3789 6.5528 9.95613 6.55277C9.56181 6.55284 9.18334 6.6208 8.83113 6.74418C8.54111 6.02887 8.36244 5.04834 8.36238 3.96683C8.36238 1.77683 8.62086 0.0441131 10.0001 0.00101161Z" fill="#D9D9D9"/>
</svg>
