<svg width="20" height="22" viewBox="0 0 20 22" fill="none" xmlns="http://www.w3.org/2000/svg">
<path d="M17.2897 0.601927C11.8277 -0.178171 8.5061 -0.223104 3.16221 0.602803C2.75948 0.665046 2.43543 0.96911 2.34857 1.36726C0.838835 8.28698 0.675007 13.399 0.0833858 20.2293C0.0376727 20.757 0.409251 21.2317 0.933156 21.3101L4.68378 21.8712C5.17732 21.945 5.64976 21.6437 5.79091 21.1651L9.55085 8.41465C9.6412 8.10828 9.92247 7.89797 10.2419 7.89797C10.5761 7.89797 10.8664 8.12776 10.9431 8.453L13.9292 21.1107C14.048 21.6143 14.5313 21.9441 15.0435 21.8711L19.13 21.2889C19.6105 21.2204 19.9733 20.8155 19.9837 20.3302C20.1273 13.6483 19.3049 9.00154 18.1328 1.4373C18.0657 1.00434 17.7234 0.663873 17.2897 0.601927Z" fill="#D9D9D9"/>
</svg>
