<svg width="20" height="13" viewBox="0 0 20 13" fill="none" xmlns="http://www.w3.org/2000/svg">
<path d="M4.60829 0.0502396C4.69324 0.0170388 4.78365 0 4.87486 0H7.84857C8.18494 0 8.47794 0.240246 8.69219 0.499547C8.91849 0.773423 9.31774 1.05783 10 1.05783C10.6823 1.05783 11.0815 0.773423 11.3078 0.499547C11.5221 0.240247 11.8151 0 12.1514 0H15.1251C15.2163 0 15.3068 0.0170388 15.3917 0.0502396L19.2967 1.57636C19.6816 1.72678 19.8659 2.16564 19.7038 2.54575L18.6472 5.0234C18.5145 5.33448 18.1861 5.51426 17.8526 5.4584L16.1815 5.17851C15.7137 5.10016 15.2964 5.48122 15.3281 5.95444C15.4866 8.31884 15.5066 9.62092 15.3134 12.0833C15.2856 12.4366 15.0053 12.7183 14.6523 12.7495C11.111 13.063 8.88288 13.1013 5.33956 12.7552C4.99022 12.7211 4.71508 12.4409 4.68483 12.0912C4.47203 9.63131 4.36143 8.3287 4.52145 5.97597C4.5541 5.49594 4.13091 5.10621 3.657 5.18929L2.15116 5.4533C1.81601 5.51205 1.48453 5.33223 1.35105 5.01924L0.296199 2.54575C0.134097 2.16564 0.31839 1.72678 0.70327 1.57636L4.60829 0.0502396Z" fill="#D9D9D9"/>
</svg>
