<svg width="18" height="6" viewBox="0 0 18 6" fill="none" xmlns="http://www.w3.org/2000/svg">
<path d="M11.4227 0.573476L13.8056 0.116463C14.1777 0.0450915 14.5582 0.190182 14.7884 0.491204L17.5435 4.09484C18.0832 4.80079 17.5028 5.8074 16.6214 5.69402L12.1482 5.1186C11.7428 5.06645 11.41 4.77282 11.3077 4.37709L10.6429 1.80589C10.4984 1.24702 10.8558 0.682206 11.4227 0.573476Z" fill="#D9D9D9"/>
<path d="M6.70642 4.14998V1.77419C6.70642 1.22191 6.25871 0.774194 5.70642 0.774194H3.8687C3.57384 0.774194 3.29401 0.904324 3.10401 1.1298L0.647577 4.04483C0.0610517 4.74086 0.633761 5.79484 1.53687 5.68143L5.83102 5.14219C6.3312 5.07938 6.70642 4.65409 6.70642 4.14998Z" fill="#D9D9D9"/>
</svg>
